#!OML:ASF Y:\EmotionMaleHayes\Project 1\Capture day 1\Session 1\Male1.ASF
:FULLY-SPECIFIED
:DEGREES
530
root -17.5411 16.9875 -1.93698 -10.5186 75.019 -4.83446
lowerback 1.30526 2.55091 -15.0498
upperback 3.79291 3.77599 -3.8374
thorax 2.64456 1.61218 4.35151
lowerneck -18.8559 3.33321 5.00206
upperneck 35.9561 3.88781 1.02615
head 16.067 2.7894 0.403105
rclavicle 3.57812e-015 -4.45278e-014
rhumerus -56.3371 -7.62461 -82.0065
rradius 38.0601
rwrist 0.883068
rhand -2.71444 -31.3483
rfingers 7.12502
rthumb 22.988 -59.9976
lclavicle 3.57812e-015 -4.45278e-014
lhumerus -24.7427 -5.78998 69.0618
lradius 66.3585
lwrist 8.13352
lhand -24.1917 -22.5289
lfingers 7.12502
lthumb 2.29218 7.4385
rfemur 0.864012 -4.90461 0.61314
rtibia 41.5198
rfoot 0.19263 -21.5504
rtoes 44.0982
lfemur 21.9362 -0.913646 -21.2021
ltibia 2.87371
lfoot -21.648 19.4313
ltoes -3.65783
531
root -17.523 16.9845 -1.93316 -11.3334 74.8143 -5.81093
lowerback 1.85362 2.63837 -14.7603
upperback 3.58975 3.75494 -3.86514
thorax 2.13185 1.65013 4.13281
lowerneck -18.8487 3.37255 5.12459
upperneck 36.021 3.87926 1.10756
head 16.1006 2.81731 0.417668
rclavicle -7.55382e-015 -1.01778e-013
rhumerus -56.4173 -7.99768 -82.0974
rradius 37.9819
rwrist 1.32421
rhand -2.4017 -31.3761
rfingers 7.12502
rthumb 23.2881 -59.9877
lclavicle -7.55382e-015 -1.01778e-013
lhumerus -25.8051 -5.65479 69.6556
lradius 66.2294
lwrist 8.98338
lhand -24.2156 -22.0447
lfingers 7.12502
lthumb 2.26915 7.92299
rfemur 0.425021 -4.97481 0.955002
rtibia 41.331
rfoot -0.209941 -19.1635
rtoes 41.1775
lfemur 21.9842 -1.04165 -20.9691
ltibia 2.72626
lfoot -21.7726 19.5884
ltoes -3.15601
532
root -17.5047 16.9836 -1.92771 -10.9489 74.5914 -5.50948
lowerback 1.46476 2.55961 -14.9226
upperback 4.0539 3.79781 -3.90852
thorax 2.8428 1.60698 4.2065
lowerneck -19.0743 3.46268 5.29135
upperneck 35.5122 3.975 0.833073
head 15.9159 2.81441 0.277765
rclavicle 1.21259e-014 -4.77083e-014
rhumerus -55.4475 -8.04591 -82.4216
rradius 37.9853
rwrist 1.62895
rhand -1.90197 -31.1919
rfingers 7.12502
rthumb 23.7674 -59.742
lclavicle 1.21259e-014 -4.77083e-014
lhumerus -26.1681 -4.951 70.1646
lradius 66.1103
lwrist 10.337
lhand -24.2115 -21.5086
lfingers 7.12502
lthumb 2.27313 8.45903
rfemur -0.0275217 -5.06714 0.917984
rtibia 41.0938
rfoot -0.608091 -17.1584
rtoes 38.5558
lfemur 21.9889 -1.08461 -21.1501
ltibia 2.70871
lfoot -22.0489 19.6788
ltoes -2.24999
533
root -17.4816 16.9858 -1.92484 -9.37687 74.2781 -3.95856
lowerback 2.09852 2.71123 -15.4125
upperback 3.77447 3.84236 -4.03131
thorax 2.16214 1.6764 4.29661
lowerneck -18.9217 3.43237 5.37866
upperneck 35.5813 3.97201 0.696967
head 15.92 2.80994 0.202251
rclavicle -2.56432e-014 -2.54444e-014
rhumerus -55.8208 -8.00386 -82.5558
rradius 38.2592
rwrist 1.57969
rhand -1.48641 -30.8568
rfingers 7.12502
rthumb 24.1659 -59.3544
lclavicle -2.56432e-014 -2.54444e-014
lhumerus -27.6293 -4.87196 70.9135
lradius 66.0915
lwrist 12.1533
lhand -24.3817 -20.7344
lfingers 7.12502
lthumb 2.1087 9.23489
rfemur -0.568568 -5.11793 0.477873
rtibia 40.8767
rfoot -0.986931 -15.3666
rtoes 37.3945
lfemur 22.0425 -0.955147 -21.7399
ltibia 2.66883
lfoot -22.3938 19.8466
ltoes -1.78095
534
root -17.4514 16.985 -1.92603 -7.53987 74.008 -2.17127
lowerback 1.75231 2.64195 -15.8829
upperback 4.10156 3.88373 -4.18185
thorax 2.69844 1.64212 4.41588
lowerneck -19.0754 3.6013 5.53598
upperneck 35.2609 4.21613 0.432419
head 15.8183 2.87702 0.102646
rclavicle 8.15017e-015 -5.725e-014
rhumerus -55.234 -7.66415 -83.0388
rradius 38.5752
rwrist 1.47786
rhand -1.25072 -30.8554
rfingers 7.12502
rthumb 24.3919 -59.3229
lclavicle 8.15017e-015 -5.725e-014
lhumerus -28.2473 -4.11998 71.5947
lradius 65.9762
lwrist 14.2262
lhand -24.8224 -19.6977
lfingers 7.12502
lthumb 1.68309 10.2754
rfemur -1.17506 -5.04572 0.0156933
rtibia 40.675
rfoot -1.62782 -13.8592
rtoes 36.7474
lfemur 22.1303 -0.84479 -22.4887
ltibia 2.4979
lfoot -22.4849 20.1967
ltoes -2.40997
535
root -17.4254 16.982 -1.92212 -7.34826 73.7643 -2.10207
lowerback 1.67034 2.60304 -15.8449
upperback 4.30039 3.887 -4.28458
thorax 2.97033 1.6224 4.29686
lowerneck -19.1957 3.6873 5.57675
upperneck 35.0125 4.26483 0.495267
head 15.7268 2.89942 0.127595
rclavicle -1.86858e-014 -3.18055e-015
rhumerus -54.9594 -7.30055 -83.6859
rradius 39.1787
rwrist 1.32632
rhand -1.09315 -31.1036
rfingers 7.12502
rthumb 24.5429 -59.5506
lclavicle -1.86858e-014 -3.18055e-015
lhumerus -28.9452 -3.74814 72.2727
lradius 65.8394
lwrist 16.6907
lhand -25.776 -18.5224
lfingers 7.12502
lthumb 0.762096 11.456
rfemur -1.89753 -4.69508 0.382971
rtibia 40.5394
rfoot -2.64845 -12.9247
rtoes 35.3043
lfemur 22.2465 -0.848998 -22.6302
ltibia 2.23754
lfoot -22.4565 20.5576
ltoes -2.92753
536
root -17.4116 16.9831 -1.91225 -8.56215 73.4198 -3.54807
lowerback 1.94244 2.64345 -15.3947
upperback 4.26881 3.87861 -4.34247
thorax 2.80431 1.64484 3.9806
lowerneck -19.1673 3.70906 5.60142
upperneck 34.8016 4.16485 0.771968
head 15.609 2.8944 0.215734
rclavicle 5.56597e-014 -3.49861e-014
rhumerus -54.9165 -7.1957 -84.237
rradius 39.6878
rwrist 1.26222
rhand -0.890726 -30.7575
rfingers 7.12502
rthumb 24.7369 -59.1781
lclavicle 5.56597e-014 -3.49861e-014
lhumerus -29.8518 -3.96769 72.9275
lradius 65.7059
lwrist 19.4298
lhand -27.4746 -17.2449
lfingers 7.12502
lthumb -0.878511 12.733
rfemur -2.74479 -4.34453 1.39272
rtibia 40.2693
rfoot -3.78055 -12.2747
rtoes 33.0969
lfemur 22.2875 -0.928561 -22.1625
ltibia 1.98949
lfoot -22.6415 20.7655
ltoes -2.16669
